<svg id="Layer_2" xmlns="http://www.w3.org/2000/svg" viewBox="0 0 1302.2 266.88"><defs><style>.cls-1{fill:#ebeeee;}.cls-2{fill:#f08b1d;}.cls-3{fill:#e3b42d;}.cls-4{fill:#b2bb1e;}.cls-5{fill:#5d87a1;}</style></defs><g id="Layer_1-2"><g><g><path class="cls-2" d="M388.67,55.53l-9.31-32.8h-.28c.44,5.59,.65,9.93,.65,13.02v19.78h-10.9V9.99h16.38l9.5,32.33h.25l9.31-32.33h16.42V55.53h-11.31v-19.97c0-1.04,.02-2.19,.05-3.46s.17-4.37,.42-9.31h-.28l-9.19,32.74h-11.71Z"/><path class="cls-2" d="M479.49,32.7c0,7.66-1.88,13.49-5.64,17.47-3.76,3.99-9.26,5.98-16.51,5.98s-12.62-2-16.43-6.01c-3.81-4.01-5.72-9.84-5.72-17.5s1.89-13.37,5.68-17.36c3.79-4,9.3-6,16.52-6s12.74,1.98,16.48,5.95c3.74,3.97,5.61,9.79,5.61,17.47Zm-31.33,0c0,8.8,3.06,13.21,9.19,13.21,3.12,0,5.42-1.07,6.93-3.21,1.5-2.14,2.26-5.47,2.26-10s-.76-7.91-2.29-10.08c-1.53-2.17-3.81-3.25-6.84-3.25-6.17,0-9.25,4.44-9.25,13.33Z"/><path class="cls-2" d="M506.39,38.96v16.57h-12.3V9.99h14.92c12.38,0,18.56,4.49,18.56,13.46,0,5.28-2.58,9.36-7.72,12.24l13.27,19.84h-13.95l-9.66-16.57h-3.11Zm0-9.25h2.3c4.3,0,6.45-1.9,6.45-5.7,0-3.14-2.11-4.7-6.32-4.7h-2.43v10.4Z"/><path class="cls-2" d="M570.67,55.53h-27.04V9.99h27.04v9.87h-14.73v7.16h13.64v9.87h-13.64v8.6h14.73v10.03Z"/><path class="cls-2" d="M628.07,55.53h-12.3V20.05h-11.12V9.99h34.51v10.06h-11.09V55.53Z"/><path class="cls-2" d="M691.07,55.53h-12.37v-18.56h-14.3v18.56h-12.37V9.99h12.37V26.88h14.3V9.99h12.37V55.53Z"/><path class="cls-2" d="M735.23,55.53l-2.24-8.53h-14.79l-2.31,8.53h-13.52l14.86-45.72h16.41l15.04,45.72h-13.46Zm-4.8-18.63l-1.96-7.48c-.46-1.66-1.01-3.81-1.67-6.45-.65-2.64-1.08-4.53-1.29-5.67-.19,1.06-.56,2.8-1.11,5.23-.55,2.43-1.77,7.22-3.66,14.36h9.69Z"/><path class="cls-2" d="M803.34,55.53h-16.13l-16.63-32.08h-.28c.39,5.05,.59,8.9,.59,11.56v20.53h-10.9V9.99h16.07l16.57,31.65h.19c-.29-4.59-.44-8.27-.44-11.06V9.99h10.96V55.53Z"/><path class="cls-2" d="M872.54,55.53h-33.05v-8.1l11.12-11.24c3.18-3.32,5.25-5.59,6.23-6.81,.98-1.21,1.66-2.26,2.04-3.13,.38-.87,.58-1.79,.58-2.74,0-1.18-.38-2.12-1.15-2.8-.77-.69-1.85-1.03-3.24-1.03s-2.88,.41-4.34,1.23-3.12,2.03-4.97,3.63l-6.76-7.91c2.35-2.1,4.32-3.6,5.92-4.5s3.34-1.59,5.22-2.07c1.88-.48,3.99-.72,6.34-.72,2.95,0,5.58,.52,7.9,1.56,2.31,1.04,4.11,2.52,5.39,4.44,1.28,1.92,1.92,4.08,1.92,6.46,0,1.79-.22,3.44-.67,4.95-.45,1.52-1.14,3.01-2.07,4.47s-2.18,3.01-3.72,4.63c-1.55,1.62-4.84,4.69-9.89,9.22v.31h17.22v10.15Z"/><path class="cls-2" d="M916.48,32.83c0,8.06-1.35,13.96-4.05,17.71s-6.83,5.62-12.4,5.62-9.54-1.96-12.3-5.87-4.14-9.73-4.14-17.46,1.35-14.04,4.05-17.82c2.7-3.78,6.83-5.67,12.4-5.67s9.52,1.97,12.29,5.9c2.77,3.94,4.16,9.8,4.16,17.58Zm-20.65,0c0,5.15,.32,8.69,.97,10.62,.64,1.93,1.72,2.9,3.24,2.9s2.62-1,3.25-2.99c.63-1.99,.95-5.5,.95-10.53s-.32-8.58-.97-10.61c-.64-2.03-1.72-3.04-3.24-3.04s-2.6,.98-3.24,2.93c-.64,1.95-.97,5.52-.97,10.71Z"/><path class="cls-2" d="M969.23,26.88l7.85-16.88h13.33l-14.98,27.75v17.79h-12.4v-17.41l-14.98-28.13h13.39l7.79,16.88Z"/><path class="cls-2" d="M1028.75,55.53h-27.04V9.99h27.04v9.87h-14.73v7.16h13.64v9.87h-13.64v8.6h14.73v10.03Z"/><path class="cls-2" d="M1071.04,55.53l-2.24-8.53h-14.79l-2.31,8.53h-13.52l14.86-45.72h16.41l15.04,45.72h-13.46Zm-4.8-18.63l-1.96-7.48c-.46-1.66-1.01-3.81-1.67-6.45-.65-2.64-1.08-4.53-1.29-5.67-.19,1.06-.56,2.8-1.11,5.23-.55,2.43-1.77,7.22-3.66,14.36h9.69Z"/><path class="cls-2" d="M1108.1,38.96v16.57h-12.3V9.99h14.92c12.38,0,18.56,4.49,18.56,13.46,0,5.28-2.58,9.36-7.72,12.24l13.27,19.84h-13.95l-9.66-16.57h-3.11Zm0-9.25h2.3c4.3,0,6.45-1.9,6.45-5.7,0-3.14-2.11-4.7-6.32-4.7h-2.43v10.4Z"/><path class="cls-2" d="M1175.12,41.7c0,2.82-.72,5.33-2.15,7.52-1.43,2.19-3.5,3.89-6.2,5.11s-5.87,1.82-9.5,1.82c-3.03,0-5.58-.21-7.63-.64s-4.19-1.17-6.42-2.23v-10.96c2.35,1.2,4.79,2.14,7.32,2.82,2.53,.67,4.86,1.01,6.98,1.01,1.83,0,3.17-.32,4.02-.95,.85-.63,1.28-1.45,1.28-2.45,0-.62-.17-1.17-.51-1.63-.34-.47-.89-.94-1.65-1.42-.76-.48-2.78-1.45-6.06-2.93-2.97-1.35-5.2-2.66-6.68-3.92-1.49-1.27-2.59-2.72-3.3-4.36-.72-1.64-1.08-3.58-1.08-5.82,0-4.19,1.53-7.46,4.58-9.81,3.05-2.35,7.25-3.52,12.58-3.52,4.71,0,9.52,1.09,14.42,3.27l-3.77,9.5c-4.26-1.95-7.93-2.93-11.03-2.93-1.6,0-2.76,.28-3.49,.84-.73,.56-1.09,1.26-1.09,2.09,0,.89,.46,1.69,1.39,2.4,.92,.71,3.43,1.99,7.52,3.86,3.92,1.76,6.65,3.66,8.18,5.68,1.53,2.02,2.29,4.57,2.29,7.65Z"/><path class="cls-2" d="M1254.1,32.7c0,7.66-1.88,13.49-5.64,17.47-3.76,3.99-9.26,5.98-16.51,5.98s-12.62-2-16.43-6.01c-3.81-4.01-5.72-9.84-5.72-17.5s1.89-13.37,5.68-17.36c3.79-4,9.3-6,16.52-6s12.74,1.98,16.48,5.95c3.74,3.97,5.61,9.79,5.61,17.47Zm-31.33,0c0,8.8,3.06,13.21,9.19,13.21,3.12,0,5.42-1.07,6.93-3.21,1.5-2.14,2.26-5.47,2.26-10s-.76-7.91-2.29-10.08c-1.53-2.17-3.81-3.25-6.84-3.25-6.17,0-9.25,4.44-9.25,13.33Z"/><path class="cls-2" d="M1280.82,55.53h-12.12V9.99h26.91v9.87h-14.79v8.69h13.64v9.87h-13.64v17.1Z"/></g><g><path class="cls-1" d="M891.87,178.2v12.2c0,1.13,.4,2.07,1.2,2.85,.8,.78,1.9,1.16,3.29,1.16h13.26v23.28c-3.27,1.55-6.7,2.75-10.32,3.64-3.61,.88-7.85,1.33-12.72,1.33-5.51,0-10.59-.94-15.25-2.85-4.66-1.91-8.67-4.64-12.04-8.23-3.37-3.59-6-7.99-7.87-13.2-1.86-5.23-2.8-11.18-2.8-17.87,0-6.2,.88-11.82,2.64-16.86,1.77-5.03,4.28-9.33,7.54-12.93,3.27-3.58,7.22-6.34,11.84-8.27,4.63-1.92,9.81-2.88,15.54-2.88,10.68,0,24.18,5.69,25.83,6.41,1.71,.75,3.28,1.69,5.22,1.88,1.62,.15,3.06-.15,4.3-.88,1.25-.74,2.28-1.68,3.12-2.85l5.08-7.62s0,0-.02-.01c-11.58-9.54-32.24-13.8-43.71-13.8,0,0-.77,0-1.08,.01-8.58,.12-16.32,1.51-23.21,4.18-7.22,2.81-12.85,6.6-17.9,11.68-5.08,5.1-8.98,11.18-11.73,18.24-2.75,7.06-4.13,14.83-4.13,23.29,0,55.26,47.69,61.76,67.67,59.39,4.12-.49,10.59-1.69,14.2-2.7,3.6-1.02,7-2.31,10.2-3.89,3.19-1.58,6.22-3.42,9.16-5.57v-32.93h2.69c1.39,0,2.49-.39,3.29-1.16,.81-.78,1.21-1.72,1.21-2.85v-12.2h-44.5Z"/><path class="cls-1" d="M573.46,158.9c4.93,1.95,9.13,4.72,12.61,8.3,3.48,3.58,6.17,7.96,8.07,13.13,1.9,5.15,2.85,10.93,2.85,17.3s-.95,12.23-2.85,17.39c-1.9,5.16-4.58,9.57-8.07,13.2-3.47,3.64-7.67,6.43-12.61,8.38-4.92,1.95-10.42,2.92-16.47,2.92s-11.57-.97-16.52-2.92c-4.96-1.95-9.19-4.74-12.69-8.38-3.51-3.63-6.22-8.04-8.14-13.2-1.92-5.16-2.88-10.97-2.88-17.39s.97-12.14,2.88-17.3c1.93-5.18,4.64-9.55,8.14-13.13,3.51-3.58,7.73-6.35,12.69-8.3,4.95-1.95,10.45-2.93,16.52-2.93s11.55,.98,16.47,2.93Zm-1.5,58.81c3.24-4.53,4.86-11.18,4.86-19.92s-1.62-15.41-4.86-20c-3.24-4.58-8.23-6.88-14.98-6.88s-11.92,2.31-15.18,6.91c-3.27,4.62-4.91,11.27-4.91,19.96s1.63,15.32,4.91,19.88c3.26,4.55,8.32,6.85,15.18,6.85s11.74-2.27,14.98-6.81Z"/><path class="cls-1" d="M1272.56,156.89c3.06,.71,5.85,1.75,8.39,3.12l18.89-.02v7.27c0,1.21-.31,2.16-.94,2.84-.64,.68-6.1,2.8-6.1,2.8,.53,1.37,.93,2.81,1.23,4.35,.28,1.52,.43,3.14,.43,4.82,0,4.01-.8,7.63-2.42,10.88-1.6,3.22-3.82,5.98-6.64,8.24-2.83,2.28-6.18,4.04-10.05,5.26-3.87,1.24-8.07,1.85-12.6,1.85-3.05,0-6.04-.28-8.93-.86-2.53,1.54-3.8,3.24-3.8,5.14,0,1.63,.75,2.83,2.26,3.59,1.5,.77,3.48,1.31,5.93,1.64,2.45,.3,5.23,.51,8.33,.58,3.1,.08,6.29,.25,9.57,.51,3.27,.27,6.46,.73,9.56,1.38,3.11,.66,5.89,1.71,8.35,3.13,2.45,1.42,4.42,3.35,5.92,5.8,1.5,2.44,2.25,5.6,2.25,9.44,0,3.59-.88,7.06-2.65,10.44-1.76,3.37-4.31,6.37-7.65,9.01-3.36,2.62-7.45,4.74-12.31,6.36-4.84,1.6-10.37,2.4-16.59,2.4s-11.51-.59-16.04-1.77c-4.54-1.19-8.29-2.76-11.26-4.74-2.99-1.98-5.21-4.26-6.69-6.84-1.47-2.59-2.22-5.27-2.22-8.06,0-3.8,1.17-6.98,3.48-9.57,2.32-2.58,5.54-4.64,9.65-6.17-2-1.11-3.61-2.59-4.83-4.43-1.21-1.85-1.83-4.25-1.83-7.19,0-1.2,.22-2.46,.64-3.75,.42-1.3,1.07-2.57,1.93-3.84,.87-1.25,1.98-2.45,3.29-3.59,1.31-1.14,2.87-2.15,4.66-3.04-4.11-2.22-7.35-5.17-9.69-8.87-2.35-3.69-3.52-8-3.52-12.96,0-4.01,.8-7.63,2.41-10.87,1.61-3.25,3.84-6.01,6.72-8.3,2.87-2.29,6.27-4.04,10.19-5.25,3.92-1.21,8.21-1.82,12.85-1.82,3.47,0,6.74,.35,9.8,1.08Zm10.2,81.22c-.95-1-2.24-1.78-3.87-2.33-1.63-.55-3.55-.96-5.73-1.22-2.18-.27-4.51-.45-6.95-.59-2.45-.13-4.98-.27-7.59-.4-2.61-.13-5.13-.36-7.55-.68-2.21,1.22-3.99,2.66-5.34,4.31-1.34,1.66-2.01,3.58-2.01,5.73,0,1.42,.35,2.75,1.07,4,.71,1.24,1.84,2.3,3.39,3.2,1.56,.88,3.57,1.59,6.05,2.09,2.48,.5,5.51,.75,9.09,.75s6.77-.26,9.41-.82c2.64-.56,4.81-1.32,6.51-2.3,1.72-.97,2.97-2.13,3.75-3.47,.8-1.36,1.2-2.81,1.2-4.39s-.48-2.88-1.42-3.88Zm-13.68-43.28c1.79-.66,3.3-1.57,4.47-2.73,1.19-1.15,2.09-2.55,2.69-4.18,.61-1.63,.91-3.42,.91-5.37,0-4.01-1.2-7.18-3.6-9.52-2.4-2.34-5.99-3.53-10.79-3.53s-8.39,1.19-10.78,3.53c-2.41,2.35-3.61,5.52-3.61,9.52,0,1.9,.31,3.66,.91,5.3,.61,1.62,1.51,3.04,2.7,4.22,1.17,1.19,2.68,2.11,4.5,2.77,1.82,.67,3.91,1,6.28,1s4.53-.33,6.32-1Z"/><path class="cls-1" d="M503.72,224.1c-.23-.05-2.16-.38-3.23-.58V122.76h-26.47v9.28c0,2.73,1.32,4.39,3.96,4.94,.24,.04,2.16,.39,3.23,.58v85.95c-1.06,.2-2.99,.53-3.23,.58-2.64,.58-3.96,2.22-3.96,4.95v9.3h33.66v-9.3c0-2.73-1.32-4.37-3.96-4.95Z"/><path class="cls-1" d="M812.27,224.1c-.23-.05-2.16-.38-3.23-.58V122.76h-26.47v9.28c0,2.73,1.32,4.39,3.96,4.94,.23,.04,2.16,.39,3.22,.58v85.95c-1.06,.2-2.99,.53-3.22,.58-2.64,.58-3.96,2.22-3.96,4.95v9.3h33.66v-9.3c0-2.73-1.32-4.37-3.96-4.95Z"/><path class="cls-1" d="M765.65,223.95c-.23-.05-2.15-.4-3.22-.58v-36.41c0-4.59-.68-8.8-2.01-12.65-1.34-3.84-3.31-7.14-5.9-9.92-2.59-2.76-5.73-4.93-9.44-6.47-3.72-1.56-7.95-2.34-12.68-2.34-13.18,0-24.43,4.27-33.76,12.81l3.56,6.25c.58,1,1.35,1.84,2.3,2.53,.95,.68,2.08,1.03,3.4,1.03,1.58,0,3.03-.38,4.35-1.11,1.33-.74,2.77-1.57,4.31-2.5,1.55-.91,3.39-1.75,5.5-2.48,2.11-.73,4.74-1.11,7.9-1.11,4.37,0,7.7,1.32,10,3.95,2.29,2.63,3.43,6.67,3.43,12.14v4.78c-9.22,0-16.94,.8-23.16,2.39-6.22,1.58-11.2,3.57-14.94,5.98-3.74,2.41-6.41,5.11-8.02,8.08-1.61,3-2.41,6.03-2.41,9.1,0,3.63,.58,6.84,1.74,9.6,1.16,2.75,2.78,5.05,4.86,6.9,2.07,1.85,4.58,3.24,7.47,4.15,2.9,.94,6.06,1.41,9.49,1.41,14.73,0,25.43-7.08,27.49-8.92l1.04,3.46c.53,1.69,1.32,2.81,2.37,3.36,1.05,.54,2.5,.83,4.35,.83h15.95v-9.29c0-2.74-1.32-4.38-3.96-4.95Zm-22.27-5.91c-1.42,1.45-10.46,7.97-18.89,7.97-3.26,0-5.91-.74-7.94-2.23-2.03-1.5-3.04-3.95-3.04-7.41,0-1.76,.49-3.36,1.46-4.86,.98-1.48,2.62-2.78,4.95-3.9,2.31-1.11,5.39-2.03,9.21-2.74,3.81-.71,8.57-1.07,14.26-1.07v14.24Z"/><g><path class="cls-1" d="M978.26,224.11c-.23-.05-2.17-.39-3.23-.58v-66.28h-26.73v9.29c0,2.73,1.32,4.38,3.96,4.94,.23,.04,2.17,.39,3.23,.58v51.47c-1.05,.19-2.98,.53-3.2,.58-2.64,.58-3.96,2.21-3.96,4.94v9.3h33.89v-9.3c0-2.73-1.33-4.36-3.96-4.94Z"/><path class="cls-1" d="M955.37,142.22c1.03,1.02,2.23,1.84,3.61,2.44,1.38,.6,2.86,.91,4.42,.91s3.11-.31,4.52-.91c1.41-.61,2.63-1.42,3.68-2.44,1.05-1.03,1.89-2.21,2.51-3.58,.64-1.36,.95-2.81,.95-4.37s-.32-3.11-.95-4.52c-.63-1.41-1.47-2.63-2.52-3.65-1.04-1.02-2.26-1.84-3.68-2.44-1.41-.61-2.92-.91-4.52-.91-1.56-.01-3.03,.29-4.42,.91-1.38,.6-2.59,1.42-3.61,2.44-1.01,1.02-1.83,2.24-2.44,3.65-.6,1.41-.91,2.91-.91,4.52s.31,3.01,.91,4.37c.61,1.36,1.43,2.55,2.44,3.58Z"/></g><g><path class="cls-1" d="M1115.17,224.11c-.23-.05-2.17-.39-3.23-.58v-66.28h-26.73v9.29c0,2.73,1.32,4.38,3.97,4.94,.23,.04,2.17,.39,3.23,.58v51.47c-1.05,.19-2.98,.53-3.2,.58-2.64,.58-3.96,2.21-3.96,4.94v9.3h33.89v-9.3c0-2.73-1.33-4.36-3.97-4.94Z"/><path class="cls-1" d="M1092.29,142.22c1.02,1.02,2.23,1.84,3.61,2.44,1.38,.6,2.85,.91,4.42,.91s3.11-.31,4.52-.91c1.41-.61,2.63-1.42,3.68-2.44,1.05-1.03,1.89-2.21,2.51-3.58,.63-1.36,.96-2.81,.96-4.37s-.33-3.11-.95-4.52c-.63-1.41-1.47-2.63-2.52-3.65-1.04-1.02-2.26-1.84-3.68-2.44-1.4-.61-2.92-.91-4.52-.91-1.57-.01-3.03,.29-4.42,.91-1.38,.6-2.59,1.42-3.61,2.44-1.01,1.02-1.83,2.24-2.44,3.65-.6,1.41-.91,2.91-.91,4.52s.31,3.01,.91,4.37c.61,1.36,1.43,2.55,2.44,3.58Z"/></g><path class="cls-1" d="M1052.1,157.25s-21.35,57.13-21.72,59.07c-.32-1.6-20.6-59.07-20.6-59.07h-21.68v9.3c-.01,2.73,1.31,4.37,3.95,4.94,.81,.14,.88,.16,2.85,.52l26.39,66.35h17.71l26.33-66.35c1.95-.35,2.01-.38,2.83-.52,2.64-.56,3.95-2.21,3.95-4.94v-9.3h-20Z"/><path class="cls-1" d="M1213.09,224.11c-.23-.05-2.14-.39-3.19-.58v-36.81c0-4.53-.59-8.66-1.77-12.45-1.19-3.76-2.93-7-5.22-9.71-2.29-2.72-5.15-4.82-8.57-6.32-3.43-1.5-7.36-2.26-11.79-2.26-2.74,0-5.27,.26-7.59,.8-2.32,.53-4.49,1.29-6.53,2.29-2.02,1.01-3.95,2.18-5.76,3.56-1.82,1.37-3.55,2.9-5.18,4.58l-1.34-6.39c-.79-2.38-2.45-3.56-4.97-3.56h-19.08v9.29c0,2.73,1.31,4.38,3.95,4.94,.24,.04,2.15,.38,3.18,.57,0,0-.01,50.95-.01,51.49-1.04,.19-2.93,.52-3.17,.56-2.64,.58-3.95,2.21-3.95,4.94v9.3h26.66v-58.65c2.62-2.64,5.43-4.72,8.38-6.24,2.94-1.53,6.1-2.3,9.48-2.3,4.59,0,8.03,1.35,10.32,4.07,2.29,2.72,3.44,6.54,3.44,11.49v51.63h26.66v-9.3c0-2.73-1.31-4.36-3.95-4.94Z"/><path class="cls-1" d="M676.81,166.17c-5.52-6.84-13.53-10.25-24.05-10.25-7.79,0-15.61,2.87-22.87,8.11v-41.27h-26.5v9.25c0,2.73,1.31,4.37,3.95,4.93,.23,.04,2.11,.39,3.11,.57l.02,99.66c2.84,.5,7.77,.88,13.13,1.42,5.35,.54,10.62,.82,15.76,.82,14.92,0,26.28-3.82,34.06-11.44,7.78-7.63,11.68-18.52,11.68-32.68,0-12.57-2.76-22.27-8.29-29.11Zm-33.82,58.88c-6.03,0-10.41-.45-13.12-1.33v-45.77l1.77-1.84c1.3-1.34,3.34-2.61,6.11-3.85,2.79-1.21,5.78-1.83,8.97-1.83,11.58,0,17.38,8.74,17.38,26.23,0,18.93-7.04,28.4-21.1,28.4Z"/><path class="cls-1" d="M421.07,178.2v12.2c0,1.13,.4,2.07,1.2,2.85,.8,.78,1.9,1.16,3.29,1.16h13.26v23.28c-3.27,1.55-6.7,2.75-10.32,3.64-3.61,.88-7.85,1.33-12.72,1.33-5.51,0-10.59-.94-15.25-2.85-4.65-1.91-8.67-4.64-12.04-8.23-3.37-3.59-6-7.99-7.87-13.2-1.87-5.23-2.8-11.18-2.8-17.87,0-6.2,.88-11.82,2.65-16.86,1.76-5.03,4.28-9.33,7.54-12.93,3.27-3.58,7.22-6.34,11.84-8.27,4.63-1.92,9.81-2.88,15.54-2.88,10.68,0,24.17,5.69,25.83,6.41,1.71,.75,3.28,1.69,5.22,1.88,1.62,.15,3.06-.15,4.3-.88,1.25-.74,2.28-1.68,3.12-2.85l5.08-7.62h-.02c-11.58-9.55-32.24-13.81-43.71-13.81,0,0-.78,0-1.09,.01-8.57,.12-16.31,1.51-23.21,4.18-7.22,2.81-12.85,6.6-17.9,11.68-5.07,5.1-8.98,11.18-11.73,18.24-2.75,7.06-4.12,14.83-4.12,23.29,0,55.26,47.68,61.76,67.67,59.39,4.12-.49,10.59-1.69,14.2-2.7,3.61-1.02,7-2.31,10.2-3.89,3.18-1.58,6.21-3.42,9.16-5.57v-32.93h2.69c1.39,0,2.49-.39,3.29-1.16,.81-.78,1.2-1.72,1.2-2.85v-12.2h-44.5Z"/></g><g><path class="cls-3" d="M159.07,68.03c13.8-7.3,29.52-11.44,46.19-11.44,52.39,0,95.4,40.85,98.89,92.37V0H79.98c40.04,0,73.3,29.58,79.08,68.03Z"/><circle class="cls-4" cx="205.25" cy="155.71" r="65.65" transform="translate(-7.48 10.39) rotate(-2.85)"/><path class="cls-3" d="M79.98,0H0V79.98C0,35.88,35.88,0,79.98,0Z"/><path class="cls-5" d="M106.37,162.49c-4.15,2.85-8.48,5.74-12.95,8.72-2.56,1.7-5.16,3.44-7.81,5.23l-.36,.24c-23.98,15.27-40.22,30.65-47.47,44.68h93.29c-14.1-15.91-23.17-36.37-24.69-58.87Z"/><path class="cls-4" d="M205.25,254.83h98.89v-92.37c-3.48,51.52-46.5,92.37-98.89,92.37Z"/><path class="cls-2" d="M67.09,148.56c2.63-1.77,5.21-3.49,7.75-5.19,34.88-23.27,51.65-35.69,51.65-63.39,0-25.65-20.87-46.51-46.51-46.51s-46.51,20.86-46.51,46.51v16.62H0V237.17c0-30.41,22.57-60.22,67.09-88.61Z"/></g></g></g></svg>